<svg width="33" height="33" viewBox="0 0 33 33" fill="none" xmlns="http://www.w3.org/2000/svg"><path fill-rule="evenodd" clip-rule="evenodd" d="M16.5 0a16.5 16.5 0 1 1 0 33 16.5 16.5 0 0 1 0-33Z" fill="#fff" fill-opacity=".1"/><path d="M16.32 5.74c-.05 0-.1 0-.14.02a10.35 10.35 0 0 0-4.72 1.19 10.16 10.16 0 0 0-1.93 1.3l-.15.13A10.62 10.62 0 0 0 7.2 11.1a10.24 10.24 0 0 0-1.34 5.12 10.53 10.53 0 0 0 3.52 7.84l.15.13c.05.06.12.1.2.14a10.17 10.17 0 0 0 6.45 2.34c.1.04.2.04.3 0a10.35 10.35 0 0 0 4.72-1.18 10.17 10.17 0 0 0 1.93-1.3l.15-.13a10.8 10.8 0 0 0 1.67-1.89 9.4 9.4 0 0 0 .5-.83 10.24 10.24 0 0 0 1.35-5.12 10.53 10.53 0 0 0-1.85-5.95c-.48-.7-1.04-1.33-1.67-1.9l-.15-.12a10.16 10.16 0 0 0-6.65-2.49.48.48 0 0 0-.16-.02Zm-3.57.64Zm7.16 0Zm-4.06.38v1.9c-.45.03-.91.06-1.34.16l-.33.1-.65-1.79.52-.16a9.46 9.46 0 0 1 1.8-.21Zm.96 0a9.45 9.45 0 0 1 1.8.21l.52.16-.65 1.79-.33-.1c-.43-.1-.89-.13-1.34-.16v-1.9Zm-4.17.7.65 1.8c-.17.07-.34.13-.5.22-.26.13-.48.32-.73.48a.48.48 0 0 0-.26.12l-1.2-1.42c.42-.32.84-.63 1.3-.87.24-.13.5-.22.74-.32Zm7.38 0c.25.1.5.2.73.33.47.24.89.55 1.3.87l-1.2 1.42a.48.48 0 0 0-.26-.12c-.24-.16-.46-.35-.72-.48-.16-.1-.33-.15-.5-.23l.65-1.78ZM9.87 9.27l1.23 1.46c-.38.36-.74.74-1.04 1.17l-.07.12-1.65-.96.15-.24c.4-.57.87-1.08 1.38-1.55Zm12.92 0c.5.47.98.98 1.38 1.55l.15.24-1.65.96-.07-.12c-.3-.43-.66-.81-1.04-1.17l1.23-1.46Zm-6.94.35v1.87c-.7.07-1.34.3-1.92.63l-1.1-1.52c.14-.09.26-.2.4-.27a6.02 6.02 0 0 1 1.5-.58c.36-.08.74-.1 1.12-.13Zm.96 0c.38.03.76.05 1.12.14a5.85 5.85 0 0 1 1.5.57c.14.07.26.18.4.27l-1.1 1.52a4.72 4.72 0 0 0-1.92-.63V9.61Zm-4.77 1.52 1.13 1.54c-.5.45-.92 1-1.2 1.63l-1.8-.59a5.75 5.75 0 0 1 .67-1.27c.3-.45.67-.86 1.07-1.21l.07-.06a.47.47 0 0 0 .06-.04Zm8.58 0 .06.04.07.06a6.73 6.73 0 0 1 1.75 2.48l-1.81.6a4.78 4.78 0 0 0-1.2-1.64l1.13-1.54Zm-12.74.76 1.65.95c-.11.22-.23.44-.32.67l-.05.2a.48.48 0 0 0-.1.36c-.04.12-.08.24-.1.36l-1.88-.33c.17-.78.44-1.52.8-2.21Zm16.9 0c.36.7.63 1.43.8 2.21l-1.87.33a6.99 6.99 0 0 0-.1-.37.48.48 0 0 0-.1-.34c-.02-.07-.03-.14-.06-.2-.09-.24-.2-.46-.32-.68l1.65-.95Zm-8.5.52h.1a3.8 3.8 0 0 1 2.1 6.96 3.8 3.8 0 0 1-5.73-1.87 3.82 3.82 0 0 1-.07-2.34 3.8 3.8 0 0 1 3.6-2.74Zm6.5 2.21c.03.13.08.26.1.4 0 .03.01.07.03.1l.04.29a6.9 6.9 0 0 1 0 1.61l-.04.3a.48.48 0 0 0-.02.1l-.11.4-1.8-.59a4.75 4.75 0 0 0 0-2.02l1.8-.59Zm-12.9 0 1.8.59a4.74 4.74 0 0 0 0 2.02l-1.8.58c-.03-.13-.08-.25-.1-.39a.48.48 0 0 0-.03-.1l-.04-.3a6.87 6.87 0 0 1 0-1.6v-.01l.04-.3a.47.47 0 0 0 .02-.1l.11-.39Zm-3 .41 1.88.34a7.74 7.74 0 0 0 0 1.7l-1.88.33v-.03a9.56 9.56 0 0 1 0-2.3v-.04Zm18.9 0v.04a9.56 9.56 0 0 1 0 2.3v.03l-1.89-.33a7.73 7.73 0 0 0 0-1.7l1.89-.34ZM8.95 18.01l.1.36c0 .13.03.25.1.35l.06.2c.09.24.21.45.32.68l-1.65.95a9.27 9.27 0 0 1-.8-2.21L8.95 18Zm14.76 0 1.87.33a9.27 9.27 0 0 1-.8 2.2l-1.65-.94c.11-.23.23-.44.32-.68.03-.06.04-.14.06-.2.07-.1.1-.22.1-.34l.1-.37Zm-11.74.12c.28.63.7 1.18 1.2 1.63l-1.13 1.55a.48.48 0 0 0-.06-.04l-.07-.06a5.77 5.77 0 0 1-1.38-1.7c-.14-.25-.26-.52-.36-.79l1.8-.59Zm8.72 0 1.8.6a6.14 6.14 0 0 1-.67 1.27c-.3.45-.67.85-1.07 1.2v.01l-.07.06a.48.48 0 0 0-.06.04l-1.13-1.55c.5-.45.92-1 1.2-1.63Zm-6.76 2.2c.58.33 1.23.56 1.92.63v1.87c-.38-.03-.76-.05-1.12-.14a5.86 5.86 0 0 1-1.5-.57c-.14-.08-.26-.19-.4-.27l1.1-1.52Zm4.8 0 1.1 1.52c-.14.08-.26.2-.4.27a6.04 6.04 0 0 1-1.5.57c-.36.09-.74.11-1.12.14v-1.87c.7-.07 1.34-.3 1.92-.63Zm-8.74.1.07.12c.3.43.66.8 1.04 1.17l-1.23 1.46a9.76 9.76 0 0 1-1.38-1.55l-.15-.25 1.65-.95Zm12.68 0 1.65.95-.15.25c-.4.57-.87 1.08-1.38 1.55l-1.23-1.46c.38-.36.74-.74 1.04-1.17l.07-.12ZM11.8 22.35c.08.07.17.11.26.13.25.16.47.35.73.48.16.09.33.15.5.22l-.65 1.8c-.25-.11-.5-.2-.73-.33a9.23 9.23 0 0 1-1.3-.87l1.2-1.43Zm9.06 0 1.2 1.43c-.42.31-.84.63-1.3.87-.25.13-.5.22-.74.32l-.65-1.79c.17-.07.34-.13.5-.22.26-.13.48-.32.72-.48.1-.02.2-.06.27-.13Zm-6.68 1.17.33.1c.43.1.89.13 1.34.16v1.9a9.47 9.47 0 0 1-1.8-.22c-.18-.04-.35-.1-.52-.16l.65-1.78Zm4.3 0 .65 1.78c-.17.06-.34.12-.52.16-.58.15-1.19.2-1.8.22v-1.9c.45-.03.91-.06 1.34-.16l.33-.1Zm-5.74 2.54h.01Zm7.18 0h-.01Z" fill="#FEFAFA"/></svg>